HIERARCHY
ROOT Hips
{
  OFFSET 0 89.5177 0.535
  CHANNELS 6 Xposition Yposition Zposition Zrotation Xrotation Yrotation
  JOINT Spine
  {
    OFFSET 12.0259 -0.162855 1.69034e-005
    CHANNELS 3 Zrotation Xrotation Yrotation
    JOINT Spine1
    {
      OFFSET 15.3169 -0.0121922 0
      CHANNELS 3 Zrotation Xrotation Yrotation
      JOINT Spine2
      {
        OFFSET 15.3176 -0.0121908 0
        CHANNELS 3 Zrotation Xrotation Yrotation
        JOINT Neck
        {
          OFFSET 19.9142 1.56338 0
          CHANNELS 3 Zrotation Xrotation Yrotation
          JOINT Head
          {
            OFFSET 6.92651 0 0
            CHANNELS 3 Zrotation Xrotation Yrotation
            End Site
            {
              OFFSET 20.7666 0 0
            }
          }
          JOINT LeftShoulder
          {
            OFFSET -6.20654 0.708824 7.28219
            CHANNELS 3 Zrotation Xrotation Yrotation
            JOINT LeftArm
            {
              OFFSET 14.108 0 -1.52588e-005
              CHANNELS 3 Zrotation Xrotation Yrotation
              JOINT LeftForeArm
              {
                OFFSET 28.5802 0 0
                CHANNELS 3 Zrotation Xrotation Yrotation
                JOINT LeftHand
                {
                  OFFSET 27.092 0 0
                  CHANNELS 3 Zrotation Xrotation Yrotation
                  End Site
                  {
                    OFFSET 9.55928 -0.186424 0.145352
                  }
                }
              }
            }
          }
          JOINT RightShoulder
          {
            OFFSET -6.20654 0.708866 -7.28218
            CHANNELS 3 Zrotation Xrotation Yrotation
            JOINT RightArm
            {
              OFFSET 14.108 0 1.52588e-005
              CHANNELS 3 Zrotation Xrotation Yrotation
              JOINT RightForeArm
              {
                OFFSET 28.5802 0 0
                CHANNELS 3 Zrotation Xrotation Yrotation
                JOINT RightHand
                {
                  OFFSET 27.092 0 0
                  CHANNELS 3 Zrotation Xrotation Yrotation
                  End Site
                  {
                    OFFSET 9.55929 -0.186417 -0.145354
                  }
                }
              }
            }
          }
        }
      }
    }
  }
  JOINT LeftUpLeg
  {
    OFFSET 0.005 -0.535 8.837
    CHANNELS 3 Zrotation Xrotation Yrotation
    JOINT LeftLeg
    {
      OFFSET 39.9035 0 0
      CHANNELS 3 Zrotation Xrotation Yrotation
      JOINT LeftFoot
      {
        OFFSET 39.6689 0 0
        CHANNELS 3 Zrotation Xrotation Yrotation
        JOINT LeftToe
        {
          OFFSET 10.1624 13.6296 0
          CHANNELS 3 Zrotation Xrotation Yrotation
          End Site
          {
            OFFSET 8.38147 0 0
          }
        }
      }
    }
  }
  JOINT RightUpLeg
  {
    OFFSET 0.005 -0.535 -8.837
    CHANNELS 3 Zrotation Xrotation Yrotation
    JOINT RightLeg
    {
      OFFSET 39.9035 0 0
      CHANNELS 3 Zrotation Xrotation Yrotation
      JOINT RightFoot
      {
        OFFSET 39.6689 0 0
        CHANNELS 3 Zrotation Xrotation Yrotation
        JOINT RightToe
        {
          OFFSET 10.1624 13.6296 0
          CHANNELS 3 Zrotation Xrotation Yrotation
          End Site
          {
            OFFSET 8.38147 0 0
          }
        }
      }
    }
  }
}
MOTION
Frames:	6
Frame Time:	0.0333333
221.508 89.8028 3.95127 30.902 -82.7491 -54.8049 1.86339 -1.17476 -0.744885 3.71255 -2.37254 -1.45148 3.71255 -2.37254 -1.45149 -8.30748e-012 -9.0191e-006 -5.27751e-005 16.2355 0.700244 5.6185 -179.46 -15.5101 -87.9812 4.61345 -48.9737 17.4225 -12.7155 0 1.59028e-015 -60.9454 -34.6994 -51.5826 178.527 12.7531 96.6448 56.2175 66.5444 -68.7811 -8.58378 3.18055e-015 -7.95139e-016 -52.4969 29.5156 45.434 5.19662 2.38032 175.855 -12.207 2.38542e-015 -0 10.5202 5.94066 -12.9939 90 -1.10807e-015 -0 5.95307 -2.91577 176.852 -13.3231 -5.96354e-016 -1.98785e-016 14.6879 -3.59802 3.73827 90 -5.09386e-016 -0 
221.533 89.8037 3.99181 31.067 -82.7793 -54.6499 1.87015 -1.18277 -0.741134 3.72605 -2.38852 -1.44358 3.72605 -2.38852 -1.44359 -8.30708e-012 -9.0191e-006 -5.27751e-005 16.1844 0.650716 5.61041 -179.453 -15.4663 -87.9491 4.63033 -48.9282 17.3707 -12.7104 0 1.19271e-015 -60.8291 -34.7891 -51.5009 178.551 12.714 96.5567 55.8088 66.3527 -68.4484 -8.5385 1.59028e-015 -0 -52.4867 29.4921 45.4572 5.1284 2.37332 175.878 -12.2131 -7.95139e-016 3.97569e-016 10.5206 5.94725 -13.0087 90 5.39281e-016 9.93923e-017 5.87495 -2.91172 176.876 -13.355 -1.98785e-016 -2.98177e-016 14.6919 -3.60125 3.71968 90 2.98177e-016 -0 
221.551 89.8034 4.02708 31.1629 -82.782 -54.5554 1.88279 -1.18778 -0.739292 3.75133 -2.39865 -1.43947 3.75133 -2.39865 -1.43948 -8.30748e-012 -9.0191e-006 -5.27751e-005 16.1821 0.653621 5.59117 -179.456 -15.4775 -87.9626 4.66016 -49.0108 17.495 -12.6932 0 -3.97569e-016 -60.8099 -34.7366 -51.4456 178.565 12.7211 96.4895 55.7947 66.2572 -68.5195 -8.5056 0 3.97569e-016 -52.1097 29.6786 45.2855 5.08918 2.40576 175.896 -12.2156 0 -0 10.4953 5.962 -13.0417 90 3.4632e-016 9.93923e-017 5.82887 -2.91559 176.891 -13.3825 -1.98785e-016 1.49089e-016 14.6846 -3.59633 3.6893 90 -8.69683e-017 7.95139e-016 
221.557 89.8031 4.05233 31.2084 -82.7766 -54.5026 1.89483 -1.18988 -0.736327 3.77551 -2.40007 -1.43326 3.77551 -2.40007 -1.43327 -8.30748e-012 -9.0191e-006 -5.27751e-005 16.202 0.678735 5.53043 -179.458 -15.4287 -87.9634 4.75867 -49.0941 17.6701 -12.7447 -3.18055e-015 -3.97569e-016 -60.7468 -34.8722 -51.4761 178.58 12.7084 96.428 55.54 66.1671 -68.3137 -8.50917 0 3.97569e-016 -52.2287 29.6531 45.3437 5.07666 2.3947 175.891 -12.2191 -7.95139e-016 -5.96354e-016 10.4959 5.96825 -13.0557 90 3.35061e-015 9.93923e-017 5.78254 -2.9292 176.889 -13.4367 1.98785e-016 2.48481e-016 14.7092 -3.60127 3.66584 90 -1.36664e-016 -1.59028e-015 
221.559 89.8026 4.07266 31.226 -82.7796 -54.4744 1.90666 -1.19169 -0.730287 3.79924 -2.40645 -1.42083 3.79924 -2.40645 -1.42084 -8.30669e-012 -9.0191e-006 -5.27751e-005 16.2518 0.74933 5.40088 -179.45 -15.3716 -87.924 4.81257 -49.0277 17.7712 -12.7856 -3.18055e-015 -7.95139e-016 -60.7622 -34.9398 -51.5559 178.586 12.6874 96.413 55.3548 66.1314 -68.1655 -8.50863 -4.77083e-015 -7.95139e-016 -51.4114 29.9073 44.8061 5.05436 2.3961 175.881 -12.2213 2.38542e-015 1.98785e-016 10.4795 5.96133 -13.0401 90 -2.08142e-015 -0 5.7731 -2.89499 176.882 -13.4279 0 1.98785e-016 14.6812 -3.57835 3.62873 90 -6.83322e-016 -0 
221.556 89.802 4.08558 31.361 -82.7943 -54.3434 1.91041 -1.19493 -0.718599 3.80694 -2.4126 -1.39726 3.80694 -2.4126 -1.39727 -8.30907e-012 -9.0191e-006 -5.27751e-005 16.3432 0.845294 5.25176 -179.447 -15.3364 -87.9103 4.91725 -48.9101 18.0089 -12.8221 3.18055e-015 7.95139e-016 -60.6204 -35.2478 -51.624 178.585 12.7042 96.4083 55.2626 66.2128 -68.1697 -8.46031 1.59028e-015 -1.19271e-015 -51.5326 29.9509 44.9589 5.02136 2.42581 175.886 -12.2205 7.95139e-016 -1.98785e-016 10.4555 5.99009 -13.1046 90 -4.13099e-016 -2.98177e-016 5.74043 -2.8942 176.883 -13.4338 -1.98785e-016 -1.49089e-016 14.6764 -3.57887 3.62149 90 -1.54058e-015 -0 
